#!OML:ASF F:\VICON\USERDATA\INSTALL\rory3\rory3.ASF
:FULLY-SPECIFIED
:DEGREES
19
root 0.4041990000000002 17.564 -8.125290000000007 0.15712500000000418 6.118169999999993 -1.882519999999999
lfemur -23.76879999999999 -6.391930000000007 -22.5354
ltibia 43.136099999999985
lfoot -15.981799999999957 -7.506010000000002
ltoes 3.33470999999998
rfemur -10.72809999999999 -2.8047899999999903 24.196400000000004
rtibia 101.41799999999996
rfoot 20.579200000000036 -10.499499999999992
rtoes 19.339399999999973
lowerback nan 0.9709440000000003 2.3825400000000005
upperback 0.13418200000000147 1.832969999999999 0.642206999999999
thorax -9.58479 0.779772 -1.1197600000000019
lowerneck -20.12 -5.378249999999999 -2.1614699999999996
upperneck 8.83604 -7.337989999999998 5.03753
head 6.198529999999999 -3.202950000000001 1.1520999999999997
lclavicle 1.488399999999998e-14 -1.0237399999999997e-14
lhumerus -51.6517 -6.151459999999999 87.2644
lradius 109.525
lwrist 29.017700000000005
lhand -24.1311 5.457039999999999
lfingers nan
lthumb 2.350739999999999 35.4238
rclavicle 1.488399999999998e-14 -1.0237399999999997e-14
rhumerus -43.2128 11.9673 -99.6101
rradius 105.49
rwrist -27.077199999999998
rhand -16.7627 nan
rfingers nan
rthumb 9.464280000000002 7.3274399999999975
20
root 0.39625000000000005 17.4528 -7.6761000000000035 0.3771080000000002 4.619409999999998 -1.1108699999999974
lfemur -22.384100000000007 -5.507430000000001 -23.73059999999999
ltibia 44.2477
lfoot -18.970900000000018 -4.266240000000003
ltoes 0.3877200000000194
rfemur -14.071799999999996 -2.1958900000000052 22.670900000000007
rtibia 104.25399999999998
rfoot 20.500999999999983 -9.447269999999996
rtoes 26.2349
lowerback nan 1.4522299999999986 1.0132200000000018
upperback 0.17710899999999918 2.172479999999999 0.41958900000000154
thorax -9.656050000000002 0.9989090000000003 -0.6738510000000006
lowerneck -19.947699999999998 -5.23256 -2.2298300000000006
upperneck 8.40787 -7.1471199999999975 5.341549999999999
head 6.04248 -3.0991500000000003 1.28984
lclavicle -5.05658e-15 2.1568099999999998e-14
lhumerus -49.4817 -5.470389999999998 87.1526
lradius 109.65699999999998
lwrist 29.014800000000005
lhand -23.9503 5.793200000000003
lfingers nan
lthumb 2.5253399999999995 35.757999999999996
rclavicle -5.05658e-15 2.1568099999999998e-14
rhumerus -44.2817 10.511499999999998 -99.8227
rradius 104.343
rwrist -26.759300000000003
rhand -17.598 nan
rfingers nan
rthumb 8.658310000000002 4.230179999999995
21
root 0.40390248840495657 17.38066657215276 2.073941011384659 0.8044820799155481 5.276877023875332 -0.6701322386350475
lfemur -23.557713924305347 -6.700158342658419 -24.218762260003537
ltibia 39.679906896343425
lfoot -19.44007977669642 -3.7402848873547283
ltoes -2.4829257546495693
rfemur -12.391889460231834 -2.9308620938428906 22.10991098327088
rtibia 100.56990859091474
rfoot 25.343362871069544 -7.57516763202415
rtoes 26.168356946585845
lowerback nan 2.3064034417199566 3.227793805531692
upperback 1.2747813844577398 2.8273337031804395 -0.9632564976775377
thorax -6.268125436494593 1.209278583235394 -1.8113711457057164
lowerneck -23.015291593194398 -5.286862264701509 -1.5032729899914705
upperneck 9.8139277223678 -8.610159988619785 5.537193221509759
head 7.475399661862727 -3.32625699086677 0.9378872144481238
lclavicle 1.8808617292416602e-14 8.799074983992815e-14
lhumerus -47.541019740931844 -8.24141371673104 85.35364439036928
lradius 109.53416622521134
lwrist 29.867061567884733
lhand -24.145580184646857 5.505470909168389
lfingers nan
lthumb 2.349430576537586 35.507824086173414
rclavicle 1.7910536918134894e-14 8.697742647578803e-14
rhumerus -40.25069083844172 7.460344828283895 -98.64782168128554
rradius 105.71061120333204
rwrist -21.71904082734955
rhand -19.44591530658916 nan
rfingers nan
rthumb 6.915180130624777 4.714153569306385
22
root 0.4147116374252304 17.338582976094415 3.0199908428304267 1.0333637197348975 5.940555457133533 -0.1839911581109135
lfemur -24.113396491020858 -8.064401659980044 -24.676918089596665
ltibia 34.81924255927866
lfoot -18.88658459804832 -3.1223348954322763
ltoes -4.02864272999995
rfemur -11.255604696581024 -3.9571850162338236 21.327931897025024
rtibia 97.08821232678875
rfoot 30.49300425129008 -5.698676750967218
rtoes 26.628877200518026
lowerback nan 2.3053652996024545 3.4762526704628263
upperback 1.2688540119097467 2.687875610786403 -0.9274511815871311
thorax -5.242670847538866 1.2006677582938923 -1.7937284897866965
lowerneck -22.607943145748443 -5.231097843747227 -1.5772812157365925
upperneck 9.563350000419433 -8.655361523916515 5.585075853348659
head 7.401929396364315 -3.3170363187119976 0.9540843840745369
lclavicle 1.3823081861747432e-15 6.423952480228709e-14
lhumerus -47.771304529535996 -7.512400461698351 84.51728697136868
lradius 109.96786592849216
lwrist 30.315309439129955
lhand -25.325266924347233 6.16721678901624
lfingers nan
lthumb 1.2516043770379297 36.27310415640043
rclavicle 1.6765654689795908e-15 6.338221589749021e-14
rhumerus -40.00526200313675 8.363127210040805 -98.20179334681174
rradius 107.07813685020994
rwrist -17.393896912602617
rhand -21.240075736513166 nan
rfingers nan
rthumb 5.283612432181831 5.077630602639045
23
root 0.4311354608609214 17.32157511370278 4.05805781883306 1.2513512060160061 6.648841102485871 0.32358313768461233
lfemur -24.031989627394246 -9.519603497064173 -25.096323776062796
ltibia 29.872413182843086
lfoot -18.630001163809503 -2.366468229978117
ltoes -6.360970679118929
rfemur -10.8488329828789 -5.282539954450977 20.32465311906524
rtibia 93.83187695822525
rfoot 35.88644844524841 -4.212134509711627
rtoes 26.537349252798453
lowerback nan 2.3003704506612515 3.710862897324585
upperback 1.3984780594624517 2.5739893046965046 -0.8980494600587532
thorax -4.441414231804288 1.1398137475183474 -1.626724039105766
lowerneck -23.283672910558856 -5.165530175974741 -1.6079179437480255
upperneck 10.002257251318703 -8.710081423766304 5.630895274416056
head 7.688395990280635 -3.295406436958178 0.9546461102800827
lclavicle 2.5531047840160688e-14 9.414820733900526e-14
lhumerus -48.174042148487004 -6.834820423111155 83.55322175531397
lradius 110.21836651147433
lwrist 30.83630160041368
lhand -26.304828992878925 7.068927724698771
lfingers nan
lthumb 0.3407210946969834 37.24322358151854
rclavicle 2.7815069894384648e-14 9.392360719528168e-14
rhumerus -39.751683001601364 9.034438899474505 -97.46904433148181
rradius 108.02688596002156
rwrist -13.015950506222554
rhand -23.731327460345234 nan
rfingers nan
rthumb 2.910670870384936 1.7695507803591406
24
root 0.45005782335911193 17.323462743993257 5.083051417228918 1.5242216105928477 7.053861334805083 0.6533532548495842
lfemur -23.54360383165325 -10.752896980540681 -25.31579464231008
ltibia 24.892009788719793
lfoot -17.354623632595 -2.0521450029750037
ltoes -3.45796976414014
rfemur -11.299376514627244 -6.252992109114924 19.535925842038218
rtibia 90.92887303771231
rfoot 40.335223915164725 -4.165195400471265
rtoes 28.212823268268572
lowerback nan 2.167536339391223 3.8005495866215315
upperback 1.0257090898258716 2.2936087495589437 -0.6401720804472153
thorax -4.953004318739772 1.0108132276865942 -1.0807861617134213
lowerneck -21.253687378986108 -5.033852842497749 -1.933322215702006
upperneck 9.501020891065188 -8.549852664896374 5.629096527825565
head 7.156433372401571 -3.211060449117185 1.0544935287923742
lclavicle -8.250562294172124e-15 3.358689186684864e-14
lhumerus -49.253801643484 -5.784920165841794 83.08532641726906
lradius 110.62020389160355
lwrist 31.30421518071138
lhand -26.25172254626022 7.420307719364942
lfingers nan
lthumb 0.42254227604647676 37.62863896583784
rclavicle -6.0885682684304135e-15 3.363654054613505e-14
rhumerus -40.43829275155679 10.267529556914592 -97.14125747363109
rradius 108.98383533887532
rwrist -10.20741645026287
rhand -25.050611394173824 nan
rfingers nan
rthumb 1.610770237137376 -2.3219508924424836
25
root 0.4725695660585576 17.34705191664702 5.9789285439230895 1.7790382919843695 6.987079310055821 0.7964624381040126
lfemur -22.72924533729479 -11.532417085120976 -25.433128171940286
ltibia 19.889408642845673
lfoot -17.632513834345534 -1.5741639876941536
ltoes -5.33868999637938
rfemur -12.294428573605279 -6.6688740747318285 18.93266052234899
rtibia 88.65130556931915
rfoot 42.93390670867201 -5.135208979769113
rtoes 31.569613086971408
lowerback nan 2.1507503558424643 3.897859510253194
upperback 0.730652190903354 2.255421191547886 -0.6043671920194844
thorax -5.616634645005393 0.977905657377073 -0.9920381550133996
lowerneck -21.468639375432236 -5.051407048174088 -1.8772387169327849
upperneck 10.194596070102964 -8.53969674177439 5.412160173039073
head 7.34375162301166 -3.206186825199192 1.0000592604495233
lclavicle -8.474597614947104e-15 3.3839374685113374e-14
lhumerus -50.68294817178227 -4.921555217186277 82.25558151471995
lradius 111.07903941885031
lwrist 31.723534129876278
lhand -25.611379298850323 6.967641955217747
lfingers nan
lthumb 1.0562906799218217 37.1536934062743
rclavicle -7.633737340194207e-15 3.391246880557633e-14
rhumerus -40.925565084604806 10.78582736084686 -96.72901877578398
rradius 109.7791345812516
rwrist -9.669613029160109
rhand -24.681177134489964 nan
rfingers nan
rthumb 1.9478138861469203 -2.5970540286237487
